<svg width="222" height="190" viewBox="0 0 222 190" fill="none" xmlns="http://www.w3.org/2000/svg">
<circle cx="156" cy="16" r="102" fill="white" fill-opacity="0.15"/>
<circle cx="209" cy="128" r="62" fill="white" fill-opacity="0.15"/>
<path d="M35.6919 170H48.7778L32.9111 122.792H18.2222L2.38818 170H14.2964L17.3389 159.629H32.7476L35.6919 170ZM24.7979 133.425H25.4194L30.4902 150.993H19.6289L24.7979 133.425ZM55.6807 170H67.229V150.731C67.229 145.66 70.6313 142.781 75.7349 142.781C77.5015 142.781 79.8242 143.076 80.7075 143.436V133.588C79.8569 133.229 78.0576 133.032 76.52 133.032C71.9727 133.032 68.4395 135.911 67.5562 139.575H66.9346V133.588H55.6807V170ZM90.8818 125.246V134.079H85.2876V142.683H90.8818V160.022C90.8818 167.154 94.644 170.065 104.229 170.065C106.421 170.065 108.548 169.869 109.758 169.607V161.363C108.908 161.461 108.188 161.527 106.847 161.527C103.837 161.527 102.43 160.186 102.43 157.438V142.683H109.758V134.079H102.43V125.246H90.8818ZM117.381 170H128.962V133.588H117.381V170ZM123.171 129.368C127.261 129.368 129.714 127.307 129.714 124.232C129.714 121.124 127.261 119.063 123.171 119.063C119.115 119.063 116.661 121.124 116.661 124.232C116.661 127.307 119.115 129.368 123.171 129.368ZM171.426 147.067C170.706 138.136 164.719 132.738 154.676 132.738C142.669 132.738 136.257 139.379 136.257 151.745C136.257 164.177 142.669 170.851 154.676 170.851C164.556 170.851 170.739 165.485 171.426 156.783H160.793C160.27 160.186 158.144 161.952 154.676 161.952C150.194 161.952 147.871 158.55 147.871 151.745C147.871 145.006 150.161 141.636 154.676 141.636C158.209 141.636 160.303 143.665 160.793 147.067H171.426ZM178.754 170H190.302V119.946H178.754V170ZM216.082 140.949C219.942 140.949 222.363 143.468 222.559 147.721H209.342C209.637 143.599 212.287 140.949 216.082 140.949ZM222.984 159.27C222.199 161.396 219.876 162.639 216.507 162.639C212.09 162.639 209.375 159.695 209.277 154.951V154.362H233.78V151.156C233.78 139.542 227.237 132.738 216.016 132.738C204.729 132.738 197.892 140.033 197.892 152.04C197.892 163.98 204.566 170.851 216.18 170.851C225.602 170.851 232.275 166.369 233.551 159.27H222.984ZM240.16 144.548C240.16 150.273 243.726 153.839 250.956 155.376L257.728 156.816C260.639 157.438 261.719 158.255 261.719 159.793C261.719 161.756 259.658 163.032 256.484 163.032C253.082 163.032 251.021 161.821 250.432 159.564H239.276C239.931 166.892 245.885 170.851 256.321 170.851C266.495 170.851 273.136 166.009 273.136 158.452C273.136 152.923 270.028 149.946 262.864 148.441L255.339 146.903C252.46 146.282 251.152 145.366 251.152 143.828C251.152 141.865 253.246 140.557 256.255 140.557C259.396 140.557 261.326 141.833 261.653 143.959H272.188C271.762 136.631 266.233 132.738 256.157 132.738C246.343 132.738 240.16 137.318 240.16 144.548Z" fill="white" fill-opacity="0.15"/>
</svg>
