<?xml version="1.0" encoding="UTF-8"?>
<svg version="1.1" viewBox="0 0 2000 2000" width="180" height="180" xmlns="http://www.w3.org/2000/svg">
<path transform="translate(1360,257)" d="m0 0h29l46 2 46 4 31 4 9 3 5 5 3 6v8l-6 9-12 11-8 7-22 22-7 8-14 17-13 19-12 18-13 23-18 35-14 32-11 28-10 27-14 38-19 52-9 24-5 14-11 25-13 29-11 22-12 22-13 22-15 23-10 13-11 14-12 14-14 15-21 21-11 9-13 11-16 12-22 15-21 13-18 10-19 10-36 16-37 14-30 10-36 10-43 10-13 3-10 35-9 36-8 40-5 33-2 26v32l-2 9-7 8-5 2h-79l-8-6-3-4-1-3 1-16 6-36 9-45 14-56 12-40 12-36 3-7-1-5-11-15-12-20-8-15-7-16-9-24-7-25-5-24-3-21-2-24v-38l3-35 6-35 8-32 12-36 11-27 13-27 12-22 15-25 11-16 13-18 11-14 24-28 9-9 7-8 13-13 8-7 10-9 22-18 20-15 23-16 22-14 17-10 33-17 26-12 32-13 36-13 36-10 39-9 32-6 48-6 42-3zm-24 35-32 2-37 4-14 2-4 4-35 112-14 45-1 6 10-2 44-14 115-36 22-7 10-16 11-18 13-19 12-16 11-14 11-12v-2h2l7-8 5-6-13-2-26-2-22-1zm-126 16-29 7-29 8-2 2-18 60-13 43-22 72-11 37-6 19-2 8 4-1 11-9 5-2h9l8 5 3 6v10l-9 14-8 10v2l10-3 33-11 40-14 40-13 43-15 71-24 5-4 15-37 10-23 2-5-40 12-36 11-31 10-64 20-20 6-11 1-6-3-4-5-2-5 1-10 10-33 10-31 20-64 12-39 3-9v-3zm-101 30-27 11-24 11-22 11-10 6-7 4-4 20-20 121-13 80-10 61-2 10 4-2 8-9 7-8 12-14 15-16 10-10 4-7 18-60 14-46 16-53 9-31 9-29 11-36 4-12v-2zm-131 68-13 10-19 14-13 11-11 9-9 9-3 21-8 75-9 84-7 64-11 100-1 7 3-3 12-19 14-22 13-19 9-14 3-7 21-129 14-85 16-99 1-7zm-105 93-1 3-3 1-11 14-12 15-13 18-14 22-10 17-15 29-9 20-11 29-8 26-7 28-4 23-3 27-1 32 1 24 4 31 5 24 8 26 9 22 10 21 7 12 3 2 2-2 6-16 18-40 7-15 5-37 13-122 14-129 11-100v-5zm451 60-47 16-36 12-52 18-38 13-81 27-8 5-12 17-22 33-13 20-14 22-3 6 10-3 41-14 36-12 97-33 60-20 41-14 10-4 3-4 17-46 13-36v-3zm-50 131-16 6-60 20-40 14-43 14-44 15-36 12-47 16-16 6-4 5-9 16-7 14-10 19-16 32-13 27-3 7 5-1 87-34 40-16 43-17 46-18 32-13 41-16 15-6 5-3 13-20 13-23 12-23 11-24 3-9zm-317 58m-1 1 1 2zm-1 2-6 7-9 13-20 30-21 35-10 17-6 11-18 35-9 19-7 15-12 27-11 27-9 24-9 25-12 37-10 36-11 44-13 65 1 5h31l2-26 4-36 6-36 9-41 10-37 11-36 14-40 10-26 10-24 18-40 11-23 23-46 10-18 12-22 8-13 4-6zm223 93-19 8-26 10-101 40-38 15-56 22-45 18-3 5-8 20-5 13 1 3 52-13 39-12 33-12 26-11 29-14 22-12 26-16 11-8 16-12 17-14 13-12 17-16z" fill="#B2D667"/>
<path transform="translate(906,1491)" d="m0 0h69l32 2 15 3 12 4 10 5 10 8 7 11 4 11 2 17-2 15-4 11-7 10-8 8-14 7-12 3 3 2 15 4 14 7 10 9 7 10 4 11 1 5v25l-4 15-6 11-9 10-8 7-14 7-19 5-18 2h-90zm28 24v82h30l32-1 17-3 10-5 7-7 5-10 2-9v-13l-2-9-6-10-7-6-12-5-16-3-23-1zm0 105v92h57l19-2 13-5 8-6 6-7 4-8 3-12v-15l-2-9-6-11-8-7-10-5-17-4-8-1z" fill="#B2D667"/>
<path transform="translate(4,1491)" d="m0 0h63l29 2 17 4 14 6 13 10 9 12 5 11 3 14v23l-3 15-5 12-8 11-4 5-14 10-14 6-14 4-12 2-11 1h-41l1 96-2 1h-26l-1-1v-213zm28 24-1 1v99h21l25-1 16-3 11-4 11-7 6-7 4-8 3-13v-14l-2-12-5-10-7-8-10-6-12-4-11-2-18-1z" fill="#B2D667"/>
<path transform="translate(1846,1475)" d="m0 0h27v103l11-13 13-9 12-5 11-2h25l16 3 14 7 9 8 7 11 5 15 1 7 1 18v115l-1 1h-26l-1-1-1-127-3-12-5-9-8-7-10-4-5-1h-23l-16 5-8 6-7 8-5 10-3 9-2 16-1 106-1 1h-26l-1-258z" fill="#B2D667"/>
<path transform="translate(354,1549)" d="m0 0h13l16 2 16 6 9 7 7 8 7 16 1 6 1 141-1 1h-19l-2-5-3-19v-3l-5 4-7 8-10 8-14 7-12 3-10 1h-11l-14-2-11-4-10-6-7-7-6-10-4-13-1-8v-9l3-14 6-12 7-8 10-7 13-6 17-4 16-2 47-1v-12l-2-18-4-10-7-8-11-5-5-1h-22l-19 5-17 7h-4l-5-13-2-4 1-4 13-6 15-5 14-3zm8 98-21 2-12 3-10 6-8 9-4 11v17l4 9 6 7 8 4 7 2h20l15-4 11-6 10-10 5-10 3-12 1-15v-12l-1-1z" fill="#B2D667"/>
<path transform="translate(1259,1553)" d="m0 0h28l1 124 2 13 4 10 8 9 8 4 13 3h14l15-3 12-6 8-8 6-12 3-10 2-18 1-106h28v182l-1 1h-21l-2-4-2-15v-6l-13 13-11 7-11 5-12 3-21 1-15-2-15-5-10-7-7-7-6-11-4-12-2-13z" fill="#B2D667"/>
<path transform="translate(565,1549)" d="m0 0h11l15 2 12 4 10 6 9 8 6 10 5 16 1 8v132l-1 1h-26l-1-127-2-10-4-9-6-8-9-5-11-3h-22l-12 3-8 4-8 7-6 10-4 10-3 16-1 111-1 1h-26l-1-1v-182h23l1 3 2 23 5-4 7-8 7-6 16-8 11-3z" fill="#B2D667"/>
<path transform="translate(1553,1549)" d="m0 0h12l15 2 14 5 11 7 8 9 6 13 3 11 1 12v127l-1 1h-26l-1-121-2-16-6-12-7-7-12-5-5-1h-22l-13 3-10 6-8 9-6 12-4 18-1 12-1 101-1 1h-26v-183h23l3 24v2l5-5 6-7 13-9 10-5 12-3z" fill="#B2D667"/>
<path transform="translate(1750,1549)" d="m0 0h14l21 3 16 5 2 1-1 7-6 17-6-1-13-4-10-2h-24l-13 4-11 7-7 8-6 12-3 9-3 19v21l2 15 5 16 6 11 9 9 11 6 8 2 9 1h10l15-2 16-4 6-3h4v24l-12 5-17 4-12 1h-13l-15-2-13-4-14-7-11-9-8-10-8-16-5-16-2-11-1-21 1-17 4-20 5-13 5-10 8-10 7-7 14-9 12-5 13-3z" fill="#B2D667"/>
<path transform="translate(706,1510)" d="m0 0h15l1 1v42h53l1 3-1 18-1 1h-52l1 116 2 9 5 8 8 6 6 2h18l14-3 1 1v19l-1 2-16 4-18 1-14-2-10-4-9-6-6-7-6-12-3-14v-120h-25l-1-1v-12l5-3 20-9 3-8 8-30z" fill="#B2D667"/>
<path transform="translate(205,1476)" d="m0 0h26l2 1v258l-1 1h-26l-1-1z" fill="#B2D667"/>
<path transform="translate(1199,1549)" d="m0 0h14l11 1 3 1v9l-3 17-7-1h-23l-12 4-11 7-7 8-8 14-4 14-1 8-1 104-1 1h-26v-183h23l3 33 12-16 8-8 13-8 10-4z" fill="#B2D667"/>
</svg>
