<svg width="181" height="190" viewBox="0 0 181 190" fill="none" xmlns="http://www.w3.org/2000/svg">
<circle cx="115" cy="16" r="102" fill="white" fill-opacity="0.15"/>
<circle cx="168" cy="128" r="62" fill="white" fill-opacity="0.15"/>
<path d="M48.3525 170V122.792H36.3789V141.309H17.5679V122.792H5.56152V170H17.5679V150.96H36.3789V170H48.3525ZM75.1787 170.851C86.8579 170.851 93.728 163.784 93.728 151.778C93.728 139.935 86.6943 132.738 75.1787 132.738C63.7285 132.738 56.6294 140 56.6294 151.778C56.6294 163.751 63.5322 170.851 75.1787 170.851ZM75.1787 162.018C70.9258 162.018 68.5049 158.288 68.5049 151.778C68.5049 145.431 70.9912 141.571 75.1787 141.571C79.3662 141.571 81.8525 145.431 81.8525 151.778C81.8525 158.255 79.4316 162.018 75.1787 162.018ZM100.958 170H112.506V148.343C112.506 144.679 114.698 142.192 117.937 142.192C121.274 142.192 123.139 144.188 123.139 147.852V170H134.196V148.146C134.196 144.581 136.257 142.192 139.562 142.192C143.062 142.192 144.829 144.123 144.829 148.048V170H156.377V145.104C156.377 137.645 151.666 132.738 144.501 132.738C139.365 132.738 135.112 135.453 133.607 139.608H132.986C131.612 135.224 128.079 132.738 122.877 132.738C118.101 132.738 114.24 135.388 112.833 139.608H112.212V133.588H100.958V170ZM181.469 140.949C185.33 140.949 187.75 143.468 187.947 147.721H174.73C175.024 143.599 177.674 140.949 181.469 140.949ZM188.372 159.27C187.587 161.396 185.264 162.639 181.895 162.639C177.478 162.639 174.763 159.695 174.665 154.951V154.362H199.168V151.156C199.168 139.542 192.625 132.738 181.404 132.738C170.117 132.738 163.28 140.033 163.28 152.04C163.28 163.98 169.954 170.851 181.567 170.851C190.989 170.851 197.663 166.369 198.939 159.27H188.372Z" fill="white" fill-opacity="0.15"/>
</svg>
